# xmcd
#
# Track frame offsets: 
#        150
#        18583
#        38729
#        57722
#        79480
#        98304
#        122798
#        143187
#        164601
#        186394
#        209684
#        228063
#
# Disc length: 3308 seconds
#
# Revision: 1
# Processed by: cddbd v1.5.2PL0 Copyright (c) Steve Scherf et al.
# Submitted via: ExactAudioCopyFreeDBPlugin 1.0
#
DISCID=aa0cea0c
DTITLE=Karen Records de Colombia - Merengues pa' planchar cd1
DYEAR=2004
DGENRE=Merengue
TTITLE0=Juan Luis Guerra - Como abeja al panal
TTITLE1=Rubby Perez - Enamorada de ella
TTITLE2=Hermanos Rosario - Esa morena
TTITLE3=Wilfrido Vargas  - El loco y la luna
TTITLE4=Juan Luis Guerra - Burbujas de amor
TTITLE5=Alex Bueno  - El jardin prohibido
TTITLE6=Familia Andre - De oro
TTITLE7=The New York Band - Dame vida
TTITLE8=Ramon Orlando - No voy a volver a llorar
TTITLE9=Wilfrido Vargas - La medicina
TTITLE10=Las Chicas del Can - Las pequerias cosas
TTITLE11=Joseph Fonseca - Noches de fantasia
EXTD=YEAR: 2004
EXTT0=
EXTT1=
EXTT2=
EXTT3=
EXTT4=
EXTT5=
EXTT6=
EXTT7=
EXTT8=
EXTT9=
EXTT10=
EXTT11=
PLAYORDER=
